<svg xmlns="http://www.w3.org/2000/svg" width="256" height="256" viewBox="0 0 256 256">
  <defs>
    <linearGradient id="g" x1="0" x2="1" y1="0" y2="1">
      <stop offset="0%" stop-color="#5B8DEF"/>
      <stop offset="100%" stop-color="#6EE7B7"/>
    </linearGradient>
  </defs>
  <rect width="256" height="256" rx="28" fill="url(#g)"/>
  <g fill="#ffffff" transform="translate(40,40)">
    <path d="M88 24c-22.091 0-40 17.909-40 40v16H32a8 8 0 0 0-8 8v64a8 8 0 0 0 8 8h112a8 8 0 0 0 8-8v-64a8 8 0 0 0-8-8h-16V64c0-22.091-17.909-40-40-40zm0 16c13.255 0 24 10.745 24 24v16H64V64c0-13.255 10.745-24 24-24z"/>
    <circle cx="88" cy="120" r="16"/>
  </g>
</svg>
